<svg xmlns="http://www.w3.org/2000/svg" viewBox="0 0 493.48 77.3"><defs><style>.cls-1{fill:#999;}</style></defs><title>cougar-logo</title><g id="Layer_2" data-name="Layer 2"><g id="Layer_1-2" data-name="Layer 1"><path class="cls-1" d="M114.31,0,96.06,9.58l.25,1.34c2.29.55,4.6,1,6.85,1.67,9.19,2.72,12.41,9.07,9.11,18.09-3.1,8.47-9.31,14.54-16.17,19.91C79.46,63.65,60.19,70.75,39.58,74.27c-10,1.71-20.13,2.36-30.3,3,18.25-4.63,36-10.28,52.07-21.86-2.3-1.29-4-2.17-5.62-3.15-6.72-4.08-9.17-10.07-5.4-17A52,52,0,0,1,62.07,20.74C77.09,8,94.79,1.5,114.31,0Z"/><path class="cls-1" d="M46.38,50.88C37.46,48.12,31.16,53.33,24,58l-3.56-6L28,48.16c1-8.44-1.11-13.56-6.46-16.5C15.11,33.45,10.59,37.49,10.3,43L0,34.2c6.6-7.55,11.24-15.83,21.14-19,4-1.27,7.32-5,10.91-7.61,2.77-2,5.49-4.15,8.23-6.23l1,.51L40.14,8.8,74.05,6.11c-6.72,5.38-13.92,10.62-20.44,16.58-3.35,3.06-5.89,7.2-8.11,11.24C42.5,39.38,42.51,45.07,46.38,50.88ZM22.19,20.12l-.47-1.23L11.16,22.83C15.57,26.06,15.57,26.06,22.19,20.12Z"/><path class="cls-1" d="M316.69,41.15c12.41,3.71,24.92,1.58,28.49-5.37H328.8c1.18-2.87,2-4.88,2.76-6.72h32.25c-2.71,5.35-4.56,10.4-7.63,14.54a15,15,0,0,1-8.59,5.32c-14.83,2.67-29.78,1.63-46.15.53,4.62-10.12,8.57-19.52,13.2-28.57,2.16-4.21,6.76-6,11.42-6.12,14.1-.2,28.21-.07,43-.07-1.11,2.84-2,5.09-2.86,7.34-8,0-15.82.26-23.57-.05-18-.73-20,.48-25.61,17.25A14.14,14.14,0,0,0,316.69,41.15Z"/><path class="cls-1" d="M493.48,16c-5.12,9.79-5.35,22.73-21,23.87L481.84,50c-5.78,0-10.72.19-15.62-.12a6.28,6.28,0,0,1-4-2.58c-5.36-7.77-13.12-7-21.25-6.46-1.39,3-2.76,6-4.27,9.31H425.56C430,40.45,433.9,31,438.46,21.89,440.89,17,446,15.14,451.08,15c13.28-.29,26.58,0,39.87.07A10.13,10.13,0,0,1,493.48,16ZM444.74,32.42c7.63,0,14.44.39,21.18-.13,5.25-.4,7.28-3.09,8.54-9.33-7.78-.67-15.48-1.53-23.1.52C447.43,24.53,445.92,27.86,444.74,32.42Z"/><path class="cls-1" d="M180.5,50.47c4.23-9.71,7.73-18.49,11.86-27,2.53-5.18,7.51-7.65,13.16-7.74,13.79-.21,27.58-.07,41.79-.07a15,15,0,0,1-.48,3.1c-2.94,7.23-5.85,14.49-9,21.65a15.86,15.86,0,0,1-13.72,10.09C210,52.11,196,51.67,180.5,50.47Zm14.37-7.81c8.42,1.24,16.13,1.69,23.81-.16a6,6,0,0,0,3.62-2.43c2.74-5.14,5.15-10.46,8.12-16.65-8.33,0-15.16-.47-21.88.23-2.67.27-5.92,2.57-7.4,4.9C198.53,32.66,197.07,37.51,194.87,42.66Z"/><path class="cls-1" d="M420.24,50.27h-15.3l-1.46-5.59H377.74l-5.94,5.55H358.85a33,33,0,0,1,2.48-3.13c8.78-8.65,17.7-17.16,26.35-25.93,5.21-5.3,11-8.32,18.67-7.51,3.92.41,7.92.07,12.37.07C419.23,26.05,419.73,37.91,420.24,50.27ZM403.08,22.5l-1.46-.93-15.5,14.69h17Z"/><path class="cls-1" d="M136.72,43c10.74,0,20.93,3.71,30.08-4.63h14.1c-2.4,6.4-6.05,11.45-12.63,11.75-14.26.65-28.56.42-42.84.51a12,12,0,0,1-2.63-.89c4-9.13,7.77-18.15,12-26.91,2-4.08,6.1-6.11,10.55-6.83,14.73-2.38,29.44-.54,44.73-.07-1.58,4.1-3,7.62-4.4,11.38H171.59V23.54c-7.48,0-14.76-.34-22,.21-2.22.16-5,2.29-6.22,4.32C140.85,32.45,139.17,37.34,136.72,43Z"/><path class="cls-1" d="M293.33,15.78h16.56c-4.26,9.59-8.09,18.75-12.41,27.68a11.46,11.46,0,0,1-10,6.66c-15.1.36-30.21.28-45.31.35-.27,0-.54-.33-1.2-.77,3.84-9.25,7.49-18.69,11.68-27.88,2.31-5.07,6.82-7,13.11-5.93L254.94,42.74c8.4,1.08,16.39,2.06,24-.54,2.49-.85,4.62-4.17,5.92-6.84C288,29,290.56,22.31,293.33,15.78Z"/></g></g></svg>