<svg viewBox="0 0 100.66 100.69" xmlns="http://www.w3.org/2000/svg"><g fill="#fff" fill-rule="evenodd"><path d="m93.05 91.16a29 29 0 0 1 -13.49 8.12 33 33 0 0 1 -8 .93q-21.4.9-42.83.15c-8.37-.28-15.77-3-21.44-9.15-3.56-3.92-5.29-8.98-6.45-14.21-.84-3.85-.53-7.62-.67-11.41-.17-4.44-.12-8.9-.17-13.35.1-7.88 0-15.78.36-23.66.35-7.69 2.64-14.74 8.38-20.32 5.52-5.35 12.39-7.51 19.72-7.74 15.2-.5 30.45-1 45.63.23 14.62 1.14 23.66 10.11 25.44 23.94 1.64 12.72 1.09 25.56.82 38.36-.13 6.09-.14 12.18-2 18.15a31.61 31.61 0 0 1 -5.3 9.96zm-4.79-9c2.1-2.78 2.62-6.19 2.78-9.4a423.68 423.68 0 0 0 0-45.08 19.88 19.88 0 0 0 -3.68-10.83c-4-5.41-9.58-7-15.72-7.4-13.73-.79-27.47-.57-41.21-.16a33.59 33.59 0 0 0 -6.81 1c-7.78 1.82-12.62 6.57-13.78 14.39-1.41 9.66-1.24 19.42-.79 29.17a112.46 112.46 0 0 0 .39 19.42c1 11.23 7.21 17.3 18.89 17.93 14.67.8 29.27.8 43.9.08 6.67-.28 12.77-2.51 16.03-9.16z"/><path d="m72.68 62.89c-5.6 9.69-15.84 14.49-27.1 12.73-9.92-1.56-18.37-9.76-20.58-20.06-.64-2.93-.23-5.91-.4-8.86l.21-1.26c.06-.31.13-.62.19-.92 2.66-9.36 8.49-15.82 17.8-18.77a25.58 25.58 0 0 1 27.16 8 25.94 25.94 0 0 1 2.72 29.14zm-9.34-2.2c5.77-7.4 5-15.32-2.42-22.92-4.5-4.63-10.09-5.31-15.9-3.42s-9.63 5.69-11 11.77c-2.37 7.11 1.23 15.37 8.4 19.23a16.59 16.59 0 0 0 20.92-4.66z"/><path d="m82.9 23.53a5.88 5.88 0 0 1 -6 6 6 6 0 0 1 -5.9-5.89 5.68 5.68 0 0 1 5.81-6.07 6.14 6.14 0 0 1 6.09 5.96z"/></g></svg>