<svg xmlns="http://www.w3.org/2000/svg" viewBox="0 0 581.76 236.29"><defs><style>.cls-1{fill:#fff;}</style></defs><title>logo-wht</title><g id="Layer_2" data-name="Layer 2"><g id="Layer_1-2" data-name="Layer 1"><path d="M172.15,145.51c-6.14-10.89-16.27-13.17-27.43-12.62-4.6.23-9.14,1.63-13.78,2.52.4-.68.86-1.54,1.4-2.36,7.54-11.42,18.09-19.17,30.28-24.94A131.67,131.67,0,0,1,208.47,96c23.64-2,47.3-1.46,70.93,0,19.18,1.16,38.33,2.85,57.47,4.52,15.36,1.33,30.68,3.21,46.05,4.44,23.76,1.92,47.58,2.72,71.41,1.21,11-.7,21.55-3.16,30.84-9.52,5.05-3.46,9.32-7.67,10.56-13.91a15.87,15.87,0,0,0-.4-7.34,7.48,7.48,0,0,0-7-5.45c-3.34-.22-5.69,1.68-7.1,4.56-2.41,4.91-5.72,8.94-11.07,10.54a32.65,32.65,0,0,1-9,1.16c-3.31,0-4.91-2.38-5.55-5.4-2.21,1.51-4.12,3.35-6.41,4.24a17.11,17.11,0,0,1-7.25,1,4.71,4.71,0,0,1-4.36-5.23,21,21,0,0,1,1.24-6.11c1.59-4.49,3.47-8.87,5.11-13.34a3.56,3.56,0,0,0-.08-2.82c-.35-.49-1.76-.47-2.62-.29A5.3,5.3,0,0,0,437,62.06c-1.8,5.18-3.93,10.24-5.84,15.38-1.17,3.15-.62,4,2.79,4.7-.76,2-1.25,4-4.09,4.19-5.24.32-7.11-.46-8.86-4.23-9.59,5.77-13.77,5.77-16.62.33-2.78,1.26-5.44,2.91-8.33,3.66-4.62,1.2-8.4-1.56-9.25-6.17-2.08-11.19,8.51-27,19.54-29.2,3.47-.69,5-.34,7.54,1.66,3.19-2.48,6.75-.73,10.6-1.39-1.54,3.89-2.88,7.31-4.22,10.73-1.86,4.73-3.75,9.45-5.53,14.21-.28.74-.4,2.14,0,2.4.75.51,2.19.91,2.83.52,1.8-1.1,4-2.3,4.84-4C424.89,69.5,426.91,64,429,58.44c.95-2.52-.82-3.27-3.05-3.61.71-2.17,1.19-4,4.07-4.29,4.42-.38,6.76.42,8.51,3.51,2.47-1.11,4.82-2.57,7.38-3.25,6.06-1.62,10.07,2.43,8.21,8.42-1.7,5.46-4,10.72-5.94,16.12a11,11,0,0,0-.1,3.35,12.88,12.88,0,0,0,3.47-.1c3-.91,4-3.73,5.5-6.11a43.34,43.34,0,0,1,5.11-6.63,3.9,3.9,0,0,1,5.11-.81c1.77,1.18,1.8,3.11,1.41,5-1,5-4.1,7.77-9.23,8.41-.41,3.23,1.16,4.82,4.1,3.65a13.67,13.67,0,0,0,5.16-3.74,26.81,26.81,0,0,0,5.46-12.53c.89-4.62-1.13-6.59-5.76-5.71-3.49.67-5-.59-4.84-4.15a10.72,10.72,0,0,1,4.2-7.9c2.12-1.7,5.1-2,6.52-.86s1.72,4.29.66,6.61c-.49,1.09-1.14,2.11-1.41,2.6,2.52,1.2,5.54,1.83,7.24,3.68s2.13,5,3.14,7.58c10.34-2.82,19,6,16.94,17.9-1.24,7-5.56,11.9-10.87,16.06-8.46,6.62-18.37,9.94-28.67,12.33-16.57,3.85-33.43,4.56-50.33,4-29.46-.93-58.91-2.31-88.38-3.31-24.15-.83-48.31-.77-72.37,1.81-19.4,2.08-38.44,5.81-56.23,14.36a86,86,0,0,0-20.36,13.41C173.17,144.73,172.65,145.1,172.15,145.51Zm226-64.84a8.74,8.74,0,0,0,7.11-4.87q3.36-8.68,6.72-17.37c.89-2.31.2-3.25-2.3-3.07a8.34,8.34,0,0,0-6.75,4.58c-2.47,4.42-4.61,9-6.71,13.63a10.48,10.48,0,0,0-.7,4.25C395.53,79.53,396.34,80.79,398.15,80.67Z"/><path d="M305.35,54.75c.3-3.11,2.13-4.21,4.91-4.28,3.24-.08,6.21.22,7.42,3.59,2.56-1.14,4.93-2.59,7.5-3.27,6.12-1.62,10.06,2.35,8.21,8.37-1.66,5.39-3.93,10.58-5.8,15.91a13.4,13.4,0,0,0-.27,3.61c1.38-.11,3,.21,4.07-.44a9.87,9.87,0,0,0,3.73-3.94c2.28-5,4.26-10.1,6.24-15.21.95-2.47.23-3.43-2.78-4.37,1-3.8,3.54-5.07,8.13-4.1,3.5.74,5.14,3.07,4.15,6.87s-2.57,7.63-3.93,11.42c-.84,2.36-1.82,4.67-2.57,7-.25.81-.31,2.26.14,2.58a3.54,3.54,0,0,0,2.87.31,9.41,9.41,0,0,0,5.79-6.67c2.11-7.2,5.35-13.76,11.73-18.12a28.09,28.09,0,0,1,7.22-3.22c2.73-.88,5.45-.62,7.48,1.35,3.3-2.16,6.76-.46,10.51-1.36-1.11,3-2,5.36-2.89,7.73Q382.13,71.78,377,85a28.3,28.3,0,0,1-9.24,12.8,17.39,17.39,0,0,1-9.58,3.67c-6.08.34-9.65-3.67-8.18-9.65A26.15,26.15,0,0,1,354,83.64c-.49-1.26-1-2.53-1.59-4.09-2.6,3-5.52,5.5-9.39,6.44-4.65,1.13-7.27-.07-9.29-4.2-1.81,1.12-3.55,2.35-5.44,3.31a11.55,11.55,0,0,1-3.91,1.16c-5.87.62-9.06-3-7.25-8.65,1.73-5.36,4-10.54,6-15.85.36-1,.53-2.78,0-3.23a3.79,3.79,0,0,0-3.33-.1,6.21,6.21,0,0,0-3.11,2.71c-2.21,5.19-4.13,10.5-6.13,15.79-1.34,3.55-.9,4.4,2.59,5.31-.64,2.29-1.57,4.17-4.48,4.1-3.53-.08-7.15.2-8.3-4.34-9.47,5.84-14.09,5.87-16.5.66-3.45,1.24-6.76,3-10.26,3.52-4.27.64-6.57-2.34-7.49-6.13-2.51,1.76-4.87,3.49-7.32,5.09a8.15,8.15,0,0,1-2.72,1c-6.51,1.38-10.31-2.4-8.38-8.75,1.61-5.32,3.94-10.41,5.84-15.64.35-1,.61-2.71.17-3a4.49,4.49,0,0,0-3.29-.34,5,5,0,0,0-3.58,3.53C245,67.06,242.9,72.12,241,77.26c-1.27,3.35-.83,4.1,2.58,4.92C242.44,86,242,86.31,238,86.32c-4.86,0-6.07-.79-7.3-5a25.25,25.25,0,0,1-14.66,5c-5.7.25-10.19-1.53-12.17-7a69.73,69.73,0,0,1-7.37,5.56,12.35,12.35,0,0,1-5.77,1.39c-4.48.12-7.07-2.88-6-7.25a112.41,112.41,0,0,1,4-11.41c.83-2.28,1.8-4.5,2.6-6.79.71-2.07-.5-3.42-2.59-2.84a5.88,5.88,0,0,0-4.42,3.71c-1.89,5.24-4.06,10.37-6.05,15.57-1.24,3.27-.71,4.2,3.33,5.06-1.34,1.45-2.26,3.34-3.57,3.67-2.85.74-6.08,1-8.45-1.33a5.09,5.09,0,0,1-1.15-3.75,31.79,31.79,0,0,1,1.81-7.23c3.45-9.13,7.05-18.21,10.59-27.31a10.35,10.35,0,0,0,.65-2.38c-4.42,4.36-9.8,6-15.78,6-4.1,0-7.54-1.17-9.49-5-1.82-3.59-.26-6.73,1.65-9.75.21-.34.46-.66,1-1.4-2.72.91-5.08,1.6-7.34,2.53-.5.21-.83,1.25-.92,2-.8,6.58,1,12.63,3.9,18.44a38.43,38.43,0,0,1,4.28,15.78c.81,18.13-10.72,32.45-28.56,35.63a37.87,37.87,0,0,1-17.26-1c-9.53-2.75-14.68-10-14.24-19.92.45-10.3,9.46-20.69,19.57-22.51,2.93-.53,6-.85,7.9,2.08s.73,5.78-1,8.15a18,18,0,0,1-5.56,5.21c-5,2.72-8.25.74-8.65-5.16A13.87,13.87,0,0,0,104,86.18c-.9,9.14,5.41,16.35,14.83,17.17,13.09,1.13,23.92-8,25.39-21.25a41.9,41.9,0,0,0-3.21-21.32c-3-7-4.86-14-3-22-2-.27-3.93-.57-5.82-.75-7.72-.72-15.42-.69-22.55,2.78a31,31,0,0,0-8.58,6.1,14.52,14.52,0,0,0,.7,20.84c-3.19,2.52-4.47,2.63-7.64.23-6.21-4.72-9.37-11-9-18.85.31-7.64,5.79-13.72,14.19-16.12,6-1.72,12.17-1.29,18.28-.75,6.51.59,13,1.42,19.49,2.17a2.93,2.93,0,0,0,3.37-1.89c7.11-13.54,21.83-17.7,33.66-15.9,7.55,1.16,12.5,7.7,12.28,15.4,0,1-.13,2.06-.19,3.08,5.19,1.66,6.27,3.76,4.68,9.08-.41,1.39-.94,2.75-1.44,4.11s-1,2.66-1.59,4.18c1.84-.65,3.37-1.34,5-1.73,6-1.47,9.77,2.09,8.46,8.16a50.93,50.93,0,0,1-2.57,7.29c-1.19,3.09-2.54,6.12-3.63,9.24-.33.93-.41,2.54.12,3a3.75,3.75,0,0,0,3.12.21,7.76,7.76,0,0,0,5.16-6.18c1.57-7.33,4.88-13.66,10.9-18.34a17.19,17.19,0,0,1,11.27-3.72,7.09,7.09,0,0,1,7.14,8,14.65,14.65,0,0,1-14.34,13.43c-1.69,0-3.38,0-5,0-2.18,5.37,1.46,10.31,7.06,9.46,6.16-.94,11.08-3.82,13.34-10.12,1.34-3.72,2.87-7.37,4.3-11.06s1.11-4.22-2.31-5.55c.4-2.5,1.58-3.94,4.37-4.13,4.19-.28,6.29.54,8,3.53,2.5-1.11,4.89-2.53,7.47-3.23,6-1.6,10,2.29,8.25,8.18-1.67,5.63-4.09,11-6.09,16.57-.32.89-.48,2.66-.13,2.82a4.94,4.94,0,0,0,3.34.32c3.06-.93,4.5-3.36,5.41-6.3,2.21-7.12,5.15-13.88,11.59-18.23a28.36,28.36,0,0,1,7.67-3.38c2.72-.83,5.47-.52,7.57,1.82,1.34-1.65,5.23-2.1,10.2-1.16-.37,1.07-.68,2.13-1.08,3.14-2.73,6.91-5.52,13.79-8.16,20.72-.37,1-.07,2.24-.07,3.37,1.23,0,2.57.24,3.67-.16,2.6-1,3.94-3.2,4.91-5.68,1.7-4.36,3.43-8.71,5.11-13.08C309.14,56.38,308.8,55.74,305.35,54.75ZM170.77,28c-5.57,2.1-9.14,5.65-10.23,11.3-.65,3.35,1.34,5.64,4.72,5.89a14.58,14.58,0,0,0,12.23-4.71c5-5.35,5.84-15-2.73-18.93-7.92-3.65-19.21,1.49-22.18,10.42l16.88-7.24ZM274.64,76.56c.2,2.18.26,4,2.64,4.11s6.2-2.25,7.11-4.58c2.19-5.63,4.41-11.25,6.55-16.91a16,16,0,0,0,.56-3.13,15.76,15.76,0,0,0-3.89-.36,5.66,5.66,0,0,0-2.93,1.55C279.12,62.68,276.53,69.66,274.64,76.56Zm86.84.23c-.05,3.22,1.39,4.46,4.15,3.67a7,7,0,0,0,5.14-4.31c2.26-6,4.67-11.86,7-17.8.9-2.27.13-3.26-2.36-3A8.59,8.59,0,0,0,368.9,60c-2.48,4.41-4.58,9-6.73,13.63A13.46,13.46,0,0,0,361.48,76.79Zm5.83,8.15c-2.9.46-5.64,1.35-8.31,1.16-2.09-.14-3.21.41-4.06,2a20,20,0,0,0-1.61,3.75c-.53,1.84-.73,3.78,1.11,5.06s3.7.67,5.33-.62C363.57,93.3,365.69,89.19,367.31,84.94Zm-153-16.55c3,.3,5.6.39,7.05-2.18a59.14,59.14,0,0,0,3.87-8.5c.33-.89-.38-2.16-.61-3.26-1,.42-2.25.59-2.9,1.31A40.17,40.17,0,0,0,214.29,68.39Z"/><path d="M352.57,47.15a5.28,5.28,0,0,1-5.27-5.45,5.21,5.21,0,1,1,10.41-.13A5.29,5.29,0,0,1,352.57,47.15Z"/><path d="M337.3,222.24h-3.94V194.5l-.61-.26-8.89,14.2-9-14.13-.45.1v27.8h-4V185.55c2.24-.55,3.91-.34,5.27,2.08,2.45,4.34,5.29,8.47,8.11,12.91,2.8-4.36,5.46-8.49,8.12-12.61,1.78-2.76,1.78-2.76,5.4-2.44Z"/><path d="M95.19,203.84A20.32,20.32,0,0,1,99.94,190a14.22,14.22,0,0,1,21.52-.53c7.08,7.61,6.8,22-.56,29.21a14,14,0,0,1-21-.93C96.61,213.8,95.18,209.59,95.19,203.84Zm4.38.16a14.18,14.18,0,0,0,4.7,11.49,10,10,0,0,0,14-.69,16.51,16.51,0,0,0,.45-21.35,10,10,0,0,0-15.46-.18A15,15,0,0,0,99.57,204Z"/><path d="M472.7,185.55c2.27-.63,3.56.06,4.78,1.89,5.38,8.06,10.93,16,16.42,24,.44.63.92,1.22,1.74,2.31V185.51h3.82v36.61a3.78,3.78,0,0,1-4.83-1.74c-5.36-8.07-10.91-16-16.39-24-.44-.63-.92-1.22-1.82-2.43v28.28H472.7Z"/><path d="M354.77,185.52c2.27-.71,3.52.22,4.71,2,5.4,8,10.94,16,16.44,24,.44.64.93,1.25,1.78,2.41V185.47h3.74v36.62c-2.22.71-3.62.13-4.92-1.83-5.32-8-10.82-15.87-16.25-23.8-.44-.64-.93-1.26-1.76-2.39V222.2h-3.74Z"/><path d="M222.11,204.17,226,210a14.22,14.22,0,0,0,2-3.23c.77-2.85,2.56-3.35,5.57-2.5-1.34,2.71-2.56,5.38-4,7.94a2.4,2.4,0,0,0,.12,3c1.62,2.17,3.1,4.45,4.7,6.78-4.41.82-4.41.82-8.42-4.14a50.46,50.46,0,0,1-5.86,4c-4.77,2.4-9.31.07-10.52-5.16a10.46,10.46,0,0,1,2.59-9.87c1.19-1.31,2.54-2.46,3.85-3.72a14.09,14.09,0,0,1-3-10.37,7.29,7.29,0,0,1,7-6.75c3.74,0,6.63,2.58,7.22,6.48a10.27,10.27,0,0,1-2,8C224.26,201.7,223.23,202.83,222.11,204.17Zm1.26,9.73c-1.65-2.5-3.16-4.77-5-7.54a60,60,0,0,0-4.43,5.83,3.66,3.66,0,0,0,1,4.81c1.44,1.28,3.05,1,4.47.08A45.41,45.41,0,0,0,223.37,213.9Zm-4.18-13.39c2.78-1.74,4.38-3.65,4.23-6.56a3.21,3.21,0,0,0-3.41-3.31,3,3,0,0,0-2.89,3.68A43.24,43.24,0,0,0,219.19,200.51Z"/><path d="M275.37,193.28a64.66,64.66,0,0,0-5.93-2.84c-6.89-2.46-12.86.43-15.19,7.37a18.21,18.21,0,0,0,.62,13.92,11.06,11.06,0,0,0,15.3,5.36,2.25,2.25,0,0,0,1.08-1.56c.13-2.09.05-4.19.05-6.56l-5.29-.24v-4.56h9.56c0,5.08,0,10-.06,14.87,0,.51-.74,1.19-1.29,1.48-11.78,6.27-24-.34-25.23-13.65-.58-6.41.65-12.36,5.15-17.33,5.29-5.85,13.16-6.09,19.8-1.85C275,188.37,274.84,191,275.37,193.28Z"/><path d="M403.87,208.86v-4.51h9.69c0,4.9,0,9.8-.05,14.69,0,.47-.62,1.11-1.11,1.36-12.13,6.06-23,.75-25.21-12.35-1.15-7,.14-13.52,5.32-18.85,5.66-5.84,13.26-5.29,19.53-1.59a2.27,2.27,0,0,1,.76,1.57c.11,1.2,0,2.41,0,4l-2.19-1.32c-9.25-5.5-18.45-.73-19.27,10-.29,3.76,0,7.42,2,10.76a11.06,11.06,0,0,0,14.89,4.38,2.26,2.26,0,0,0,1-1.58c.12-2.09,0-4.19,0-6.61Z"/><path d="M136,206.51V222.2h-3.85V185.58a82,82,0,0,1,9.54.08c3.52.41,5.81,2.74,6.68,6.18,1,4.19.77,8.2-2.49,11.5-.5.51-1.07.95-1.29,1.14l9.57,17.46c-3.91,1-4.5.8-6.24-2.39-1.89-3.46-3.65-7-5.64-10.39A5.31,5.31,0,0,0,136,206.51Zm.14-5c2.83-.16,5.73.61,7.41-2.21a6.71,6.71,0,0,0-.08-7.35c-1.72-2.62-4.55-2.18-7.33-2.22Z"/><path d="M505.64,185.41h4V188c0,7.43-.09,14.87.14,22.3.19,6,5.49,9.36,11.12,7.36,2.62-.94,4.49-2.76,4.8-5.57.36-3.19.43-6.43.47-9.66.07-5.63,0-11.26,0-17h4.26c0,1,0,1.85,0,2.72-.11,7.75,0,15.52-.41,23.25-.4,7-5.33,11.35-12,11.43s-11.88-4-12.26-11.07C505.28,203.11,505.64,194.38,505.64,185.41Z"/><path d="M306.83,222.16c-4.11.44-4.11.44-5.32-2.94-.16-.45-.32-.91-.49-1.36-.82-2.09-1.09-5-2.62-6s-4.35-.36-6.6-.37c-5.39,0-5.39,0-7.15,5.15-.28.84-.57,1.68-.86,2.52-1.17,3.47-1.17,3.47-5.09,3,.16-.67.27-1.35.48-2q5.51-16.53,11-33.06c.37-1.1.51-2.31,2.29-2.25s1.7,1.18,2.06,2.19q5.78,16.32,11.53,32.64C306.35,220.46,306.55,221.23,306.83,222.16ZM297,206.59c-1.57-4.43-3.05-8.58-4.72-13.26-1.49,4.74-2.81,8.93-4.18,13.26Z"/><path d="M536.5,185.44h16.25V190h-12v11.25h11.43v4.81H540.73v11.47h12.38v4.55H536.5Z"/><path d="M33.76,185.43H50v4.64H37.94v11.3H49.51v4.74H38v11.54H50.34v4.55H33.76Z"/><path d="M451.24,185.43h16.21v4.7H455.28v11.21h11.65v4.82H455.26v11.4h12.6v4.66H451.24Z"/><path d="M74.63,185.38c3.81,0,7.5,0,11.18,0a5.3,5.3,0,0,1,2,.71c3.83,1.86,5.86,7,4.86,12.17-.91,4.72-3.91,7.56-8.48,7.88-1.75.12-3.52,0-5.59,0v16h-4Zm4.11,4.49v11.78c3.12-.52,6.57,1.11,8.75-2.19a6.5,6.5,0,0,0,.1-7.34C85.47,188.88,82,190.09,78.74,189.87Z"/><path d="M68.6,192.74a33.2,33.2,0,0,0-3.55-2.42c-2.51-1.31-5.44-.78-6.84,1.07s-1,4.83,1.11,6.8c1.64,1.54,3.53,2.8,5.31,4.19a12.71,12.71,0,0,1,4.9,13.73,8.08,8.08,0,0,1-5.88,6.47,8.61,8.61,0,0,1-9.25-2.72c-1.12-1.42-.71-4.06-1-6.52a47.05,47.05,0,0,0,5.25,4.09,4.79,4.79,0,0,0,6-.62,5,5,0,0,0,.7-6.26,15.8,15.8,0,0,0-3.11-3.63c-1.66-1.52-3.58-2.77-5.23-4.3a11.07,11.07,0,0,1-2.14-13.51c2.53-4.66,9.71-6,13.3-2.14,1.09,1.19.76,3.69,1.09,5.6Z"/><path d="M178,213.71c2.46,1.57,4.37,3.31,6.61,4,1.36.45,3.53-.21,4.79-1.13a4.1,4.1,0,0,0,.94-5.31,18.92,18.92,0,0,0-3.53-4.5c-1.37-1.35-3.11-2.32-4.55-3.6-3.4-3-4.89-6.77-3.81-11.31,1.55-6.49,8-9.14,13.56-5.54a4.47,4.47,0,0,1,1.49,2.66,21,21,0,0,1,.05,4,9.62,9.62,0,0,0-2.05-1.6c-1.83-.68-3.73-1.67-5.6-1.67a4,4,0,0,0-3.49,5.75,13.69,13.69,0,0,0,3.06,4c1.4,1.33,3.1,2.32,4.58,3.58a12.57,12.57,0,0,1,4,13.78c-2.19,6.47-10.8,8.37-15,3.05C177.93,218.48,178.34,215.83,178,213.71Z"/><path d="M434.55,222.57q-6.32-18.49-12.63-37c4.09-.48,4.09-.48,5.29,3.07l7.65,22.75c1.63-4.81,3.09-9.07,4.53-13.34,1.06-3.13,2.09-6.27,3.14-9.41,1.17-3.45,1.17-3.45,5.13-3.12q-6.17,18.58-12.3,37Z"/><path d="M165.66,222.23h-4.13V190h-10v-4.62h24.07v4.44h-9.93Z"/><path d="M347.71,222.27H344V185.46h3.76Z"/><path class="cls-1" d="M169.9,0c2.31.32,4.65.52,6.93,1a30.53,30.53,0,0,1,24.11,23.77,4.23,4.23,0,0,0,.74,1.91,19.06,19.06,0,0,1,4.6,9.74c.3,2.14,2,2.87,4.09,1.82a33.11,33.11,0,0,1,16-3.77,10.22,10.22,0,0,1,3,.49c3.47,1.28,6.76,0,10.15-.36a16.35,16.35,0,0,1,6.87.46c2.92,1,5.63.3,8.31-.23,5.43-1.06,10.24.29,14.73,3.09a4.1,4.1,0,0,0,4.79.24c6.18-3,12.57-4.45,19.76-3,4.72,1,9.88-.25,14.84-.39,2.29-.06,4.58.14,6.86.16,2.76,0,5.52,0,8.28,0,2.28,0,4.56-.06,6.83,0,1.35,0,2.31,0,3-1.56,2.74-6.53,7.4-10.91,14.47-12.55,9.13-2.12,17.37,2.48,21.61,9.84.68,1.17,1.21,2.42,2.06,4.13,9.69.21,19.63.5,29.57.58,2.43,0,4.88-.9,7.31-.85,4.46.09,8.91.67,13.37.87a24,24,0,0,0,5.47-.48,28.53,28.53,0,0,1,11.12.41,13.27,13.27,0,0,0,5.68-.44c3.89-.95,7.55-.21,11.22,1a3,3,0,0,0,3.14-.55c7-5.36,16.77-6.54,23.61-1.39A21.31,21.31,0,0,1,490.35,46c.71,2.67,2.26,5,4.91,5.89,11.88,4.18,18.48,13,20.58,24.88,1.8,10.12-.94,19.65-7.26,27.93-7.85,10.29-18.44,16.63-30.41,20.92A135.8,135.8,0,0,1,451,132a196.48,196.48,0,0,1-29.18,1.91c-8.74-.1-17.48.1-26.22-.06-8.1-.15-16.19-.58-24.29-1-6-.27-12-.68-18-.94-8.33-.37-16.67-.82-25-.95-17.25-.27-34.51-.52-51.77-.44A214.34,214.34,0,0,0,254.06,132c-16.37,1.81-32.58,4.61-48,10.73a72.15,72.15,0,0,0-23.51,14.54c-6.07,5.75-13.94,6-20.81.14a9.07,9.07,0,0,1-2.52-3.41c-1.59-4.07-5.06-4.65-8.68-5.07-7.4-.88-14.06,1.71-20.77,4.31-10.71,4.15-21.5,8.13-32.74,11.82,7.37-13.37,14.74-26.75,22.26-40.38-2.4-.48-4.81-1-7.22-1.44a34.38,34.38,0,0,1-19.64-10.87,32.11,32.11,0,0,1-8.78-21C83.54,87.68,83.88,84,84,80,76.3,73.88,71.6,65.24,70.18,55.13a32.37,32.37,0,0,1,7.59-26.28c6.11-7.22,14-11,23.12-12.32a73.12,73.12,0,0,1,22,.4c2.58.41,5.18.76,7.78.93.62,0,1.43-.63,1.93-1.18A48.08,48.08,0,0,1,148.2,5c6.07-2.73,12.28-4.7,19-4.53A9.62,9.62,0,0,0,169.42,0Zm2.25,145.51c.5-.41,1-.78,1.49-1.21A86,86,0,0,1,194,130.89c17.79-8.55,36.83-12.28,56.23-14.36,24.06-2.58,48.22-2.64,72.37-1.81,29.47,1,58.92,2.38,88.38,3.31,16.9.53,33.76-.18,50.33-4,10.3-2.39,20.21-5.71,28.67-12.33,5.31-4.16,9.63-9,10.87-16.06,2.09-11.91-6.6-20.72-16.94-17.9-1-2.62-1.42-5.7-3.14-7.58s-4.72-2.48-7.24-3.68c.27-.49.92-1.51,1.41-2.6,1.06-2.32.71-5.48-.66-6.61s-4.4-.84-6.52.86a10.72,10.72,0,0,0-4.2,7.9c-.2,3.56,1.35,4.82,4.84,4.15,4.63-.88,6.65,1.09,5.76,5.71a26.81,26.81,0,0,1-5.46,12.53,13.67,13.67,0,0,1-5.16,3.74c-2.94,1.17-4.51-.42-4.1-3.65,5.13-.64,8.23-3.46,9.23-8.41.39-1.92.36-3.85-1.41-5a3.9,3.9,0,0,0-5.11.81A43.34,43.34,0,0,0,457,72.48c-1.51,2.38-2.5,5.2-5.5,6.11a12.88,12.88,0,0,1-3.47.1,11,11,0,0,1,.1-3.35c1.92-5.4,4.24-10.66,5.94-16.12,1.86-6-2.15-10-8.21-8.42-2.56.68-4.91,2.14-7.38,3.25-1.75-3.09-4.09-3.89-8.51-3.51-2.88.25-3.36,2.12-4.07,4.29,2.23.34,4,1.09,3.05,3.61-2.08,5.51-4.1,11.06-6.62,16.37-.83,1.74-3,2.94-4.84,4-.64.39-2.08,0-2.83-.52-.38-.26-.26-1.66,0-2.4,1.78-4.76,3.67-9.48,5.53-14.21,1.34-3.42,2.68-6.84,4.22-10.73-3.85.66-7.41-1.09-10.6,1.39-2.54-2-4.07-2.35-7.54-1.66-11,2.19-21.62,18-19.54,29.2.85,4.61,4.63,7.37,9.25,6.17,2.89-.75,5.55-2.4,8.33-3.66,2.85,5.44,7,5.44,16.62-.33,1.75,3.77,3.62,4.55,8.86,4.23,2.84-.17,3.33-2.15,4.09-4.19-3.41-.65-4-1.55-2.79-4.7,1.91-5.14,4-10.2,5.84-15.38a5.3,5.3,0,0,1,4.19-3.84c.86-.18,2.27-.2,2.62.29a3.56,3.56,0,0,1,.08,2.82c-1.64,4.47-3.52,8.85-5.11,13.34a21,21,0,0,0-1.24,6.11A4.71,4.71,0,0,0,441.89,86a17.11,17.11,0,0,0,7.25-1c2.29-.89,4.2-2.73,6.41-4.24.64,3,2.24,5.42,5.55,5.4a32.65,32.65,0,0,0,9-1.16c5.35-1.6,8.66-5.63,11.07-10.54,1.41-2.88,3.76-4.78,7.1-4.56a7.48,7.48,0,0,1,7,5.45,15.87,15.87,0,0,1,.4,7.34c-1.24,6.24-5.51,10.45-10.56,13.91-9.29,6.36-19.82,8.82-30.84,9.52-23.83,1.51-47.65.71-71.41-1.21-15.37-1.23-30.69-3.11-46.05-4.44-19.14-1.67-38.29-3.36-57.47-4.52-23.63-1.43-47.29-1.92-70.93,0a131.67,131.67,0,0,0-45.85,12.09c-12.19,5.77-22.74,13.52-30.28,24.94-.54.82-1,1.68-1.4,2.36,4.64-.89,9.18-2.29,13.78-2.52C155.88,132.34,166,134.62,172.15,145.51Zm133.2-90.76c3.45,1,3.79,1.63,2.49,5-1.68,4.37-3.41,8.72-5.11,13.08-1,2.48-2.31,4.72-4.91,5.68-1.1.4-2.44.12-3.67.16,0-1.13-.3-2.38.07-3.37,2.64-6.93,5.43-13.81,8.16-20.72.4-1,.71-2.07,1.08-3.14-5-.94-8.86-.49-10.2,1.16-2.1-2.34-4.85-2.65-7.57-1.82A28.36,28.36,0,0,0,278,54.15c-6.44,4.35-9.38,11.11-11.59,18.23-.91,2.94-2.35,5.37-5.41,6.3a4.94,4.94,0,0,1-3.34-.32c-.35-.16-.19-1.93.13-2.82,2-5.54,4.42-10.94,6.09-16.57,1.74-5.89-2.29-9.78-8.25-8.18-2.58.7-5,2.12-7.47,3.23-1.66-3-3.76-3.81-8-3.53-2.79.19-4,1.63-4.37,4.13,3.42,1.33,3.7,2,2.31,5.55s-3,7.34-4.3,11.06c-2.26,6.3-7.18,9.18-13.34,10.12-5.6.85-9.24-4.09-7.06-9.46,1.62,0,3.31,0,5,0a14.65,14.65,0,0,0,14.34-13.43,7.09,7.09,0,0,0-7.14-8,17.19,17.19,0,0,0-11.27,3.72c-6,4.68-9.33,11-10.9,18.34a7.76,7.76,0,0,1-5.16,6.18,3.75,3.75,0,0,1-3.12-.21c-.53-.47-.45-2.08-.12-3,1.09-3.12,2.44-6.15,3.63-9.24A50.93,50.93,0,0,0,201.3,59c1.31-6.07-2.45-9.63-8.46-8.16-1.61.39-3.14,1.08-5,1.73.59-1.52,1.11-2.84,1.59-4.18s1-2.72,1.44-4.11c1.59-5.32.51-7.42-4.68-9.08.06-1,.16-2,.19-3.08.22-7.7-4.73-14.24-12.28-15.4-11.83-1.8-26.55,2.36-33.66,15.9a2.93,2.93,0,0,1-3.37,1.89c-6.49-.75-13-1.58-19.49-2.17-6.11-.54-12.25-1-18.28.75-8.4,2.4-13.88,8.48-14.19,16.12C84.8,57,88,63.3,94.17,68c3.17,2.4,4.45,2.29,7.64-.23a14.52,14.52,0,0,1-.7-20.84,31,31,0,0,1,8.58-6.1c7.13-3.47,14.83-3.5,22.55-2.78,1.89.18,3.78.48,5.82.75-1.87,7.92,0,15,3,22a41.9,41.9,0,0,1,3.21,21.32c-1.47,13.27-12.3,22.38-25.39,21.25-9.42-.82-15.73-8-14.83-17.17a13.87,13.87,0,0,1,6.85-11.12c.4,5.9,3.63,7.88,8.65,5.16A18,18,0,0,0,125.1,75c1.75-2.37,2.82-5.34,1-8.15s-5-2.61-7.9-2.08C108.11,66.6,99.1,77,98.65,87.29c-.44,9.92,4.71,17.17,14.24,19.92a37.87,37.87,0,0,0,17.26,1C148,105,159.52,90.68,158.71,72.55a38.43,38.43,0,0,0-4.28-15.78c-2.93-5.81-4.7-11.86-3.9-18.44.09-.71.42-1.75.92-2,2.26-.93,4.62-1.62,7.34-2.53-.51.74-.76,1.06-1,1.4-1.91,3-3.47,6.16-1.65,9.75,2,3.84,5.39,5,9.49,5,6-.07,11.36-1.67,15.78-6a10.35,10.35,0,0,1-.65,2.38c-3.54,9.1-7.14,18.18-10.59,27.31a31.79,31.79,0,0,0-1.81,7.23,5.09,5.09,0,0,0,1.15,3.75c2.37,2.35,5.6,2.07,8.45,1.33,1.31-.33,2.23-2.22,3.57-3.67-4-.86-4.57-1.79-3.33-5.06,2-5.2,4.16-10.33,6.05-15.57A5.88,5.88,0,0,1,188.7,58c2.09-.58,3.3.77,2.59,2.84-.8,2.29-1.77,4.51-2.6,6.79a112.41,112.41,0,0,0-4,11.41c-1,4.37,1.54,7.37,6,7.25a12.35,12.35,0,0,0,5.77-1.39,69.73,69.73,0,0,0,7.37-5.56c2,5.49,6.47,7.27,12.17,7a25.25,25.25,0,0,0,14.66-5c1.23,4.23,2.44,5,7.3,5,4,0,4.42-.32,5.52-4.14-3.41-.82-3.85-1.57-2.58-4.92,1.94-5.14,4.08-10.2,5.87-15.38a5,5,0,0,1,3.58-3.53,4.49,4.49,0,0,1,3.29.34c.44.3.18,2.05-.17,3-1.9,5.23-4.23,10.32-5.84,15.64-1.93,6.35,1.87,10.13,8.38,8.75a8.15,8.15,0,0,0,2.72-1c2.45-1.6,4.81-3.33,7.32-5.09.92,3.79,3.22,6.77,7.49,6.13,3.5-.53,6.81-2.28,10.26-3.52,2.41,5.21,7,5.18,16.5-.66,1.15,4.54,4.77,4.26,8.3,4.34,2.91.07,3.84-1.81,4.48-4.1-3.49-.91-3.93-1.76-2.59-5.31,2-5.29,3.92-10.6,6.13-15.79a6.21,6.21,0,0,1,3.11-2.71,3.79,3.79,0,0,1,3.33.1c.54.45.37,2.23,0,3.23-1.92,5.31-4.23,10.49-6,15.85-1.81,5.62,1.38,9.27,7.25,8.65a11.55,11.55,0,0,0,3.91-1.16c1.89-1,3.63-2.19,5.44-3.31,2,4.13,4.64,5.33,9.29,4.2,3.87-.94,6.79-3.39,9.39-6.44.6,1.56,1.1,2.83,1.59,4.09A26.15,26.15,0,0,0,350,91.79c-1.47,6,2.1,10,8.18,9.65a17.39,17.39,0,0,0,9.58-3.67A28.3,28.3,0,0,0,377,85q5.16-13.18,10.23-26.41c.92-2.37,1.78-4.76,2.89-7.73-3.75.9-7.21-.8-10.51,1.36-2-2-4.75-2.23-7.48-1.35a28.09,28.09,0,0,0-7.22,3.22c-6.38,4.36-9.62,10.92-11.73,18.12a9.41,9.41,0,0,1-5.79,6.67,3.54,3.54,0,0,1-2.87-.31c-.45-.32-.39-1.77-.14-2.58.75-2.38,1.73-4.69,2.57-7,1.36-3.79,2.91-7.53,3.93-11.42s-.65-6.13-4.15-6.87c-4.59-1-7.12.3-8.13,4.1,3,.94,3.73,1.9,2.78,4.37-2,5.11-4,10.23-6.24,15.21a9.87,9.87,0,0,1-3.73,3.94c-1.05.65-2.69.33-4.07.44a13.4,13.4,0,0,1,.27-3.61c1.87-5.33,4.14-10.52,5.8-15.91,1.85-6-2.09-10-8.21-8.37-2.57.68-4.94,2.13-7.5,3.27-1.21-3.37-4.18-3.67-7.42-3.59C307.48,50.54,305.65,51.64,305.35,54.75Zm47.22-7.6a5.29,5.29,0,0,0,5.14-5.58,5.21,5.21,0,1,0-10.41.13A5.28,5.28,0,0,0,352.57,47.15Z"/><path class="cls-1" d="M290.92,236.28q-132.23,0-264.43,0c-9.94,0-16.7-5.06-21.7-13.17A33.56,33.56,0,0,1,.36,200.56c1.57-11.67,7.37-20.74,18.84-25.11a24.11,24.11,0,0,1,8.43-1.23q225.65-.08,451.29-.05,37.57,0,75.14,0c10.82,0,18.34,5.34,23.56,14.56a32.15,32.15,0,0,1,4.14,16.4c-.14,9.84-3.24,18.8-10.94,25.47a21.74,21.74,0,0,1-14.51,5.68Q423.62,236.26,290.92,236.28Zm46.38-14V185.49c-3.62-.32-3.62-.32-5.4,2.44-2.66,4.12-5.32,8.25-8.12,12.61-2.82-4.44-5.66-8.57-8.11-12.91-1.36-2.42-3-2.63-5.27-2.08v36.66h4v-27.8l.45-.1,9,14.13,8.89-14.2.61.26v27.74ZM95.19,203.84c0,5.75,1.42,10,4.73,13.88a14,14,0,0,0,21,.93c7.36-7.25,7.64-21.6.56-29.21a14.22,14.22,0,0,0-21.52.53A20.32,20.32,0,0,0,95.19,203.84ZM472.7,185.55v36.69h3.72V194c.9,1.21,1.38,1.8,1.82,2.43,5.48,8,11,15.92,16.39,24a3.78,3.78,0,0,0,4.83,1.74V185.51h-3.82v28.22c-.82-1.09-1.3-1.68-1.74-2.31-5.49-8-11-15.92-16.42-24C476.26,185.61,475,184.92,472.7,185.55Zm-117.93,0V222.2h3.74V194.07c.83,1.13,1.32,1.75,1.76,2.39,5.43,7.93,10.93,15.81,16.25,23.8,1.3,2,2.7,2.54,4.92,1.83V185.47H377.7v28.41c-.85-1.16-1.34-1.77-1.78-2.41-5.5-8-11-15.93-16.44-24C358.29,185.74,357,184.81,354.77,185.52ZM222.11,204.17c1.12-1.34,2.15-2.47,3.06-3.7a10.27,10.27,0,0,0,2-8c-.59-3.9-3.48-6.53-7.22-6.48a7.29,7.29,0,0,0-7,6.75,14.09,14.09,0,0,0,3,10.37c-1.31,1.26-2.66,2.41-3.85,3.72a10.46,10.46,0,0,0-2.59,9.87c1.21,5.23,5.75,7.56,10.52,5.16a49.33,49.33,0,0,0,5.86-4c4,5,4,5,8.42,4.15-1.6-2.33-3.08-4.61-4.7-6.78a2.4,2.4,0,0,1-.12-3c1.42-2.56,2.64-5.23,4-7.94-3-.85-4.8-.35-5.57,2.5a14.22,14.22,0,0,1-2,3.23Zm53.26-10.89c-.53-2.28-.36-4.91-1.43-5.59-6.64-4.24-14.51-4-19.8,1.85-4.5,5-5.73,10.92-5.15,17.33,1.21,13.31,13.45,19.92,25.23,13.65.55-.29,1.28-1,1.29-1.48.1-4.89.06-9.79.06-14.87H266v4.56l5.29.24c0,2.37.08,4.47-.05,6.56a2.25,2.25,0,0,1-1.08,1.56,11.06,11.06,0,0,1-15.3-5.36,18.21,18.21,0,0,1-.62-13.92c2.33-6.94,8.3-9.83,15.19-7.37A64.66,64.66,0,0,1,275.37,193.28Zm128.5,15.58h5.47c0,2.42.07,4.52,0,6.61a2.26,2.26,0,0,1-1,1.58,11.06,11.06,0,0,1-14.89-4.38c-2-3.34-2.28-7-2-10.76.82-10.73,10-15.5,19.27-10l2.19,1.32c0-1.64.08-2.85,0-4a2.27,2.27,0,0,0-.76-1.57c-6.27-3.7-13.87-4.25-19.53,1.59-5.18,5.33-6.47,11.9-5.32,18.85,2.16,13.1,13.08,18.41,25.21,12.35.49-.25,1.11-.89,1.11-1.36.09-4.89.05-9.79.05-14.69h-9.69ZM136,206.51a5.31,5.31,0,0,1,6.28,2.65c2,3.4,3.75,6.93,5.64,10.39,1.74,3.19,2.33,3.41,6.24,2.39l-9.57-17.46c.22-.19.79-.63,1.29-1.14,3.26-3.3,3.54-7.31,2.49-11.5-.87-3.44-3.16-5.77-6.68-6.18a82,82,0,0,0-9.54-.08V222.2H136Zm369.61-21.1c0,9-.36,17.7.11,26.38.38,7,5.45,11.15,12.26,11.07s11.63-4.46,12-11.43c.44-7.73.3-15.5.41-23.25,0-.87,0-1.73,0-2.72h-4.26c0,5.71,0,11.34,0,17,0,3.23-.11,6.47-.47,9.66-.31,2.81-2.18,4.63-4.8,5.57-5.63,2-10.93-1.39-11.12-7.36-.23-7.43-.11-14.87-.14-22.3v-2.59ZM306.83,222.16c-.28-.93-.48-1.7-.74-2.45q-5.76-16.32-11.53-32.64c-.36-1-.42-2.14-2.06-2.19s-1.92,1.15-2.29,2.25q-5.54,16.53-11,33.06c-.21.63-.32,1.31-.48,2,3.92.42,3.92.42,5.09-3,.29-.84.58-1.68.86-2.52,1.76-5.16,1.76-5.17,7.15-5.15,2.25,0,5.05-.7,6.6.37s1.8,4,2.62,6c.17.45.33.91.49,1.36C302.72,222.6,302.72,222.6,306.83,222.16ZM536.5,185.44v36.68h16.61v-4.55H540.73V206.1h11.48v-4.81H540.78V190h12v-4.6Zm-502.74,0V222.2H50.34v-4.55H38V206.11H49.51v-4.74H37.94v-11.3H50v-4.64Zm417.48,0v36.79h16.62v-4.66h-12.6v-11.4h11.67v-4.82H455.28V190.13h12.17v-4.7Zm-376.61-.05v36.85h4v-16c2.07,0,3.84.1,5.59,0,4.57-.32,7.57-3.16,8.48-7.88,1-5.2-1-10.31-4.86-12.17a5.3,5.3,0,0,0-2-.71C82.13,185.34,78.44,185.38,74.63,185.38Zm-6,7.36.65-.17c-.33-1.91,0-4.41-1.09-5.6-3.59-3.87-10.77-2.52-13.3,2.14A11.07,11.07,0,0,0,57,202.62c1.65,1.53,3.57,2.78,5.23,4.3a15.8,15.8,0,0,1,3.11,3.63,5,5,0,0,1-.7,6.26,4.79,4.79,0,0,1-6,.62,47.05,47.05,0,0,1-5.25-4.09c.34,2.46-.07,5.1,1,6.52a8.61,8.61,0,0,0,9.25,2.72,8.08,8.08,0,0,0,5.88-6.47,12.71,12.71,0,0,0-4.9-13.73c-1.78-1.39-3.67-2.65-5.31-4.19-2.1-2-2.47-5-1.11-6.8s4.33-2.38,6.84-1.07A33.2,33.2,0,0,1,68.6,192.74Zm109.44,21c.3,2.12-.11,4.77,1,6.19,4.24,5.32,12.85,3.42,15-3.05a12.57,12.57,0,0,0-4-13.78c-1.48-1.26-3.18-2.25-4.58-3.58a13.69,13.69,0,0,1-3.06-4,4,4,0,0,1,3.49-5.75c1.87,0,3.77,1,5.6,1.67a9.62,9.62,0,0,1,2.05,1.6,21,21,0,0,0-.05-4,4.47,4.47,0,0,0-1.49-2.66c-5.6-3.6-12-1-13.56,5.54-1.08,4.54.41,8.28,3.81,11.31,1.44,1.28,3.18,2.25,4.55,3.6a18.92,18.92,0,0,1,3.53,4.5,4.1,4.1,0,0,1-.94,5.31c-1.26.92-3.43,1.58-4.79,1.13C182.41,217,180.5,215.28,178,213.71Zm256.51,8.86.81,0q6.13-18.49,12.3-37c-4-.33-4-.33-5.13,3.12-1,3.14-2.08,6.28-3.14,9.41-1.44,4.27-2.9,8.53-4.53,13.34l-7.65-22.75c-1.2-3.55-1.2-3.55-5.29-3.07Q428.25,204.1,434.55,222.57Zm-268.89-.34V189.81h9.93v-4.44H151.52V190h10v32.24Zm182,0V185.46H344v36.81Z"/><path class="cls-1" d="M398.15,80.67c-1.81.12-2.62-1.14-2.63-2.85a10.48,10.48,0,0,1,.7-4.25c2.1-4.61,4.24-9.21,6.71-13.63a8.34,8.34,0,0,1,6.75-4.58c2.5-.18,3.19.76,2.3,3.07q-3.35,8.68-6.72,17.37A8.74,8.74,0,0,1,398.15,80.67Z"/><path class="cls-1" d="M170.77,28l-1.31-3.27L152.58,32c3-8.93,14.26-14.07,22.18-10.42,8.57,3.94,7.71,13.58,2.73,18.93a14.58,14.58,0,0,1-12.23,4.71c-3.38-.25-5.37-2.54-4.72-5.89C161.63,33.66,165.2,30.11,170.77,28Z"/><path class="cls-1" d="M274.64,76.56c1.89-6.9,4.48-13.88,10-19.32a5.66,5.66,0,0,1,2.93-1.55,15.76,15.76,0,0,1,3.89.36,16,16,0,0,1-.56,3.13c-2.14,5.66-4.36,11.28-6.55,16.91-.91,2.33-4.66,4.73-7.11,4.58S274.84,78.74,274.64,76.56Z"/><path class="cls-1" d="M361.48,76.79a13.46,13.46,0,0,1,.69-3.18c2.15-4.59,4.25-9.22,6.73-13.63a8.59,8.59,0,0,1,6.51-4.6c2.49-.29,3.26.7,2.36,3-2.33,5.94-4.74,11.84-7,17.8a7,7,0,0,1-5.14,4.31C362.87,81.25,361.43,80,361.48,76.79Z"/><path class="cls-1" d="M367.31,84.94c-1.62,4.25-3.74,8.36-7.54,11.37-1.63,1.29-3.45,1.94-5.33.62s-1.64-3.22-1.11-5.06a20,20,0,0,1,1.61-3.75c.85-1.61,2-2.16,4.06-2C361.67,86.29,364.41,85.4,367.31,84.94Z"/><path class="cls-1" d="M214.29,68.39a40.17,40.17,0,0,1,7.41-12.63c.65-.72,1.92-.89,2.9-1.31.23,1.1.94,2.37.61,3.26a59.14,59.14,0,0,1-3.87,8.5C219.89,68.78,217.27,68.69,214.29,68.39Z"/><path class="cls-1" d="M99.57,204a15,15,0,0,1,3.65-10.73,10,10,0,0,1,15.46.18,16.51,16.51,0,0,1-.45,21.35,10,10,0,0,1-14,.69A14.18,14.18,0,0,1,99.57,204Z"/><path class="cls-1" d="M223.37,213.9a45.41,45.41,0,0,1-4,3.18c-1.42.91-3,1.2-4.47-.08a3.66,3.66,0,0,1-1-4.81,60,60,0,0,1,4.43-5.83C220.21,209.13,221.72,211.4,223.37,213.9Z"/><path class="cls-1" d="M219.19,200.51a43.24,43.24,0,0,1-2.07-6.19,3,3,0,0,1,2.89-3.68,3.21,3.21,0,0,1,3.41,3.31C223.57,196.86,222,198.77,219.19,200.51Z"/><path class="cls-1" d="M136.17,201.53V189.75c2.78,0,5.61-.4,7.33,2.22a6.71,6.71,0,0,1,.08,7.35C141.9,202.14,139,201.37,136.17,201.53Z"/><path class="cls-1" d="M297,206.59h-8.9c1.37-4.33,2.69-8.52,4.18-13.26C294,198,295.44,202.16,297,206.59Z"/><path class="cls-1" d="M78.74,189.87c3.29.22,6.73-1,8.85,2.25a6.5,6.5,0,0,1-.1,7.34c-2.18,3.3-5.63,1.67-8.75,2.19Z"/></g></g></svg>