<svg viewBox="0 0 192 156.01" xmlns="http://www.w3.org/2000/svg"><path d="m60.38 156c72.45 0 112.08-60 112.08-112.08 0-1.71 0-3.4-.11-5.09a80.2 80.2 0 0 0 19.65-20.38 78.73 78.73 0 0 1 -22.63 6.19 39.48 39.48 0 0 0 17.32-21.78 79.13 79.13 0 0 1 -25 9.56 39.43 39.43 0 0 0 -67.14 35.92 111.83 111.83 0 0 1 -81.19-41.15 39.42 39.42 0 0 0 12.2 52.58 39 39 0 0 1 -17.88-4.93v.5a39.42 39.42 0 0 0 31.6 38.66 39.28 39.28 0 0 1 -17.78.67 39.44 39.44 0 0 0 36.8 27.33 79.22 79.22 0 0 1 -58.3 16.32 111.51 111.51 0 0 0 60.38 17.68" fill="#fff"/></svg>